<svg xmlns="http://www.w3.org/2000/svg" viewBox="0 0 24 24" fill="none">
  <rect width="24" height="24" rx="6" fill="#EFF6FF"/>
  
  <path d="M6 19.5C6 18.1193 7.11929 17 8.5 17H18V4H8.5C7.11929 4 6 5.11929 6 6.5V19.5Z" fill="#FFFFFF" stroke="#2563EB" stroke-width="1.5" stroke-linejoin="round"/>
  
  <path d="M6 19.5C6 18.1193 7.11929 17 8.5 17H18V19.5C18 19.7761 17.7761 20 17.5 20H8.5C7.11929 20 6 18.8807 6 17.5V19.5Z" fill="#2563EB"/>
  <path d="M6 6.5C6 5.11929 7.11929 4 8.5 4H18V17H8.5C7.11929 17 6 18.1193 6 19.5V6.5Z" fill="#2563EB"/>
  
  <path d="M11 4V10L13 8.5L15 10V4" fill="#F59E0B"/>
</svg>
